<svg xmlns="http://www.w3.org/2000/svg" width="900" height="420" viewBox="0 0 900 420" font-family="system-ui, sans-serif" font-size="12">
<rect width="900" height="420" fill="white"/>
<text x="150" y="22" font-size="14">optimizer convergence speed on the two-layer MLP trainer — epochs to reach each threshold</text>
<line x1="150" y1="370" x2="870" y2="370" stroke="#333"/>
<line x1="150" y1="40" x2="150" y2="370" stroke="#333"/>
<line x1="150" y1="370.0" x2="870" y2="370.0" stroke="#eee"/>
<text x="142" y="374.0" text-anchor="end">0.136</text>
<line x1="150" y1="304.0" x2="870" y2="304.0" stroke="#eee"/>
<text x="142" y="308.0" text-anchor="end">0.138</text>
<line x1="150" y1="238.0" x2="870" y2="238.0" stroke="#eee"/>
<text x="142" y="242.0" text-anchor="end">0.139</text>
<line x1="150" y1="172.0" x2="870" y2="172.0" stroke="#eee"/>
<text x="142" y="176.0" text-anchor="end">0.141</text>
<line x1="150" y1="106.0" x2="870" y2="106.0" stroke="#eee"/>
<text x="142" y="110.0" text-anchor="end">0.143</text>
<line x1="150" y1="40.0" x2="870" y2="40.0" stroke="#eee"/>
<text x="142" y="44.0" text-anchor="end">0.144</text>
<line x1="150.0" y1="370" x2="150.0" y2="375" stroke="#333"/>
<text x="150.0" y="390" text-anchor="middle">0</text>
<line x1="294.0" y1="370" x2="294.0" y2="375" stroke="#333"/>
<text x="294.0" y="390" text-anchor="middle">24</text>
<line x1="438.0" y1="370" x2="438.0" y2="375" stroke="#333"/>
<text x="438.0" y="390" text-anchor="middle">48</text>
<line x1="582.0" y1="370" x2="582.0" y2="375" stroke="#333"/>
<text x="582.0" y="390" text-anchor="middle">72</text>
<line x1="726.0" y1="370" x2="726.0" y2="375" stroke="#333"/>
<text x="726.0" y="390" text-anchor="middle">96</text>
<line x1="870.0" y1="370" x2="870.0" y2="375" stroke="#333"/>
<text x="870.0" y="390" text-anchor="middle">120</text>
<text x="510" y="412" text-anchor="middle">epochs to reach the threshold</text>
<circle cx="792.0" cy="40.0" r="2" fill="#1f77b4"/>
<line x1="14" y1="46" x2="34" y2="46" stroke="#1f77b4" stroke-width="3"/>
<text x="40" y="50">sgd</text>
<polyline points="804.0,177.5 546.0,150.0 396.0,122.5 330.0,95.0 330.0,67.5 324.0,40.0" fill="none" stroke="#d62728" stroke-width="2"/>
<circle cx="804.0" cy="177.5" r="2" fill="#d62728"/>
<circle cx="546.0" cy="150.0" r="2" fill="#d62728"/>
<circle cx="396.0" cy="122.5" r="2" fill="#d62728"/>
<circle cx="330.0" cy="95.0" r="2" fill="#d62728"/>
<circle cx="330.0" cy="67.5" r="2" fill="#d62728"/>
<circle cx="324.0" cy="40.0" r="2" fill="#d62728"/>
<line x1="14" y1="64" x2="34" y2="64" stroke="#d62728" stroke-width="3"/>
<text x="40" y="68">sgd_momentum</text>
<polyline points="828.0,95.0 558.0,67.5 390.0,40.0" fill="none" stroke="#2ca02c" stroke-width="2"/>
<circle cx="828.0" cy="95.0" r="2" fill="#2ca02c"/>
<circle cx="558.0" cy="67.5" r="2" fill="#2ca02c"/>
<circle cx="390.0" cy="40.0" r="2" fill="#2ca02c"/>
<line x1="14" y1="82" x2="34" y2="82" stroke="#2ca02c" stroke-width="3"/>
<text x="40" y="86">adagrad</text>
<circle cx="870.0" cy="40.0" r="2" fill="#9467bd"/>
<line x1="14" y1="100" x2="34" y2="100" stroke="#9467bd" stroke-width="3"/>
<text x="40" y="104">rmsprop</text>
<polyline points="870.0,370.0 660.0,342.5 552.0,315.0 528.0,287.5 474.0,260.0 432.0,232.5 426.0,205.0 414.0,177.5 408.0,150.0 408.0,122.5 390.0,95.0 384.0,67.5 384.0,40.0" fill="none" stroke="#ff7f0e" stroke-width="2"/>
<circle cx="870.0" cy="370.0" r="2" fill="#ff7f0e"/>
<circle cx="660.0" cy="342.5" r="2" fill="#ff7f0e"/>
<circle cx="552.0" cy="315.0" r="2" fill="#ff7f0e"/>
<circle cx="528.0" cy="287.5" r="2" fill="#ff7f0e"/>
<circle cx="474.0" cy="260.0" r="2" fill="#ff7f0e"/>
<circle cx="432.0" cy="232.5" r="2" fill="#ff7f0e"/>
<circle cx="426.0" cy="205.0" r="2" fill="#ff7f0e"/>
<circle cx="414.0" cy="177.5" r="2" fill="#ff7f0e"/>
<circle cx="408.0" cy="150.0" r="2" fill="#ff7f0e"/>
<circle cx="408.0" cy="122.5" r="2" fill="#ff7f0e"/>
<circle cx="390.0" cy="95.0" r="2" fill="#ff7f0e"/>
<circle cx="384.0" cy="67.5" r="2" fill="#ff7f0e"/>
<circle cx="384.0" cy="40.0" r="2" fill="#ff7f0e"/>
<line x1="14" y1="118" x2="34" y2="118" stroke="#ff7f0e" stroke-width="3"/>
<text x="40" y="122">adam</text>
</svg>
